<svg version="1.1" id="Layer_1" xmlns="http://www.w3.org/2000/svg" xmlns:xlink="http://www.w3.org/1999/xlink" x="0px" y="0px"
	 width="100%" viewBox="0 0 496 496" enable-background="new 0 0 496 496" xml:space="preserve">
<path fill="#000000" opacity="1.000000" stroke="none" 
	d="
M86.523941,286.579041 
	C79.188568,291.082458 72.780182,296.406097 65.377502,300.121246 
	C64.102951,298.307343 65.410255,297.673553 66.122177,296.876740 
	C76.437126,285.331879 86.711327,273.749847 97.122459,262.292267 
	C99.527245,259.645782 100.764534,257.598785 97.799950,254.349045 
	C95.282593,251.589523 94.774300,247.920532 97.284492,244.694794 
	C99.909515,241.321503 103.379997,242.476852 106.380363,243.962006 
	C116.670860,249.055710 124.185059,257.187469 130.284744,266.713318 
	C131.851044,269.159393 131.601791,271.840363 130.069138,274.290436 
	C129.190277,275.695374 128.324417,277.231049 127.084877,278.268341 
	C117.274582,286.478119 105.311234,287.777100 93.311951,289.562408 
	C92.886986,286.475220 94.719917,286.354279 95.929459,285.672668 
	C102.163025,282.159943 108.442207,278.725494 114.615234,275.109650 
	C116.608353,273.942200 118.973587,272.310669 117.064140,269.583099 
	C115.110733,266.792786 112.690254,267.280823 110.321594,269.514648 
	C103.249603,276.184052 94.861137,281.040466 86.523941,286.579041 
z"/>
<path fill="#000000" opacity="1.000000" stroke="none" 
	d="
M92.161316,217.767181 
	C95.186058,207.084869 100.607780,201.897858 108.408241,202.768372 
	C115.842659,203.598038 121.956238,207.217255 125.948753,213.704987 
	C127.959846,216.972977 129.021973,220.953979 125.504951,223.651413 
	C122.311806,226.100464 119.210434,223.715057 116.630470,221.496582 
	C114.870453,219.983170 113.372162,218.161194 111.587425,216.681534 
	C106.888870,212.786072 103.314049,213.385284 100.058891,218.531906 
	C97.724464,222.222809 96.476700,226.350906 95.273376,230.510315 
	C94.743576,232.341614 94.833893,234.457275 92.341827,236.881821 
	C91.247490,230.085526 91.538078,224.140228 92.161316,217.767181 
z"/>
<path fill="#000000" opacity="1.000000" stroke="none" 
	d="
M143.080887,246.683197 
	C140.832733,241.979782 138.427063,237.662323 140.657822,232.587418 
	C141.500183,230.671082 142.609985,228.981201 144.939850,228.931854 
	C147.014359,228.887909 148.358887,230.284897 149.172867,231.972946 
	C150.542297,234.812881 151.515610,237.849258 152.956787,240.647888 
	C155.279404,245.158279 157.599594,245.678589 161.736542,242.766174 
	C166.448395,239.449036 170.225861,235.308838 172.619720,229.984024 
	C173.272476,228.532104 173.495697,226.732971 175.334564,225.971970 
	C176.855957,226.837708 176.430466,228.363281 176.256607,229.499756 
	C174.990051,237.778992 171.978943,245.330887 165.454071,250.855637 
	C156.546982,258.397430 150.029068,257.142426 143.080887,246.683197 
z"/>
<path fill="#000000" opacity="1.000000" stroke="none" 
	d="
M252.998749,254.933990 
	C256.629517,258.110931 257.216736,261.894684 254.836533,264.533234 
	C252.160736,267.499481 247.693237,266.930084 243.059158,263.032227 
	C237.435455,267.584747 235.072647,267.710510 229.845825,263.525574 
	C228.383499,265.869934 226.545425,267.812164 223.870193,265.098419 
	C222.999680,264.215393 222.864059,264.554260 222.053772,265.147339 
	C218.496750,267.750854 217.014648,266.033234 216.779572,262.305084 
	C216.696274,260.983948 216.720383,259.649231 216.797409,258.326660 
	C216.883041,256.856323 216.779083,255.180496 218.618179,254.622681 
	C220.450256,254.067017 221.879196,254.637878 222.680969,256.722992 
	C225.426941,253.189392 227.839569,253.330124 229.764206,257.347229 
	C234.970276,253.140594 237.567932,253.209091 243.032898,257.830170 
	C245.655243,255.235275 248.592606,253.112091 252.998749,254.933990 
z"/>
<path fill="#000000" opacity="1.000000" stroke="none" 
	d="
M152.608459,212.967209 
	C155.712540,222.964066 147.501099,229.517136 141.249191,227.810745 
	C136.575104,226.535004 132.995621,221.979568 133.004547,217.108154 
	C133.012848,212.590240 136.357040,208.021606 140.473755,206.904160 
	C145.477600,205.545898 149.119507,207.280609 152.608459,212.967209 
z"/>
<path fill="#000000" opacity="1.000000" stroke="none" 
	d="
M337.390625,249.260925 
	C335.386292,249.269409 333.890045,249.108490 333.724487,246.962296 
	C329.850769,250.427612 328.382812,250.240845 325.361694,245.574356 
	C325.546906,248.877197 323.921844,249.568161 321.425476,249.278580 
	C319.233765,249.024338 318.803131,247.574615 318.755737,245.785355 
	C318.707428,243.962143 318.494049,242.108963 318.736542,240.320923 
	C319.052704,237.989471 317.173828,234.551483 321.245880,233.830780 
	C324.879883,233.187607 328.408783,233.296997 329.158417,238.373367 
	C331.300079,237.351562 330.727478,234.672821 332.810883,233.866135 
	C337.066101,232.218536 340.273102,234.179398 340.342773,238.752670 
	C340.378113,241.073547 340.347321,243.396027 340.310364,245.717209 
	C340.282867,247.449097 340.117554,249.122955 337.390625,249.260925 
z"/>
<path fill="#000000" opacity="1.000000" stroke="none" 
	d="
M229.810822,249.198532 
	C225.890091,244.702652 227.743774,239.677170 228.197250,234.979828 
	C228.409515,232.781006 235.348633,233.233353 236.733536,235.571793 
	C237.385910,236.673325 237.733582,237.955307 238.355087,239.490936 
	C239.558670,236.595108 239.782333,233.612946 243.778748,233.568878 
	C247.747955,233.525146 249.751556,234.647385 249.357376,238.909271 
	C249.143936,241.217102 249.303726,243.558960 249.284958,245.885391 
	C249.270309,247.699951 248.876297,249.234100 246.614273,249.278809 
	C244.525314,249.320099 242.310501,249.515778 242.885513,245.586731 
	C241.258789,247.127228 241.151398,249.207169 238.972763,249.363693 
	C236.755478,249.523010 235.701614,248.236725 234.458206,246.711349 
	C233.943634,249.302414 232.190750,249.466980 229.810822,249.198532 
z"/>
<path fill="#000000" opacity="1.000000" stroke="none" 
	d="
M398.824310,234.185028 
	C401.122559,238.384598 400.331024,242.611267 399.904846,246.660492 
	C399.514343,250.370789 394.817780,250.425217 390.675598,246.636993 
	C390.029022,249.484222 387.963959,249.564545 385.756134,249.178513 
	C383.433105,248.772324 383.743652,246.829163 383.687286,245.237839 
	C383.592957,242.576279 383.698914,239.908112 383.631805,237.244965 
	C383.568665,234.739960 384.922363,232.889099 387.149475,233.842834 
	C391.062286,235.518433 394.718201,233.420349 398.824310,234.185028 
z"/>
<path fill="#000000" opacity="1.000000" stroke="none" 
	d="
M364.880859,240.254913 
	C366.491669,234.590088 370.312439,233.025681 375.332336,233.650604 
	C379.232880,234.136200 381.690247,236.353165 382.258179,240.313736 
	C382.965515,245.246780 379.986664,248.915604 374.844543,249.623459 
	C369.347168,250.380219 365.657288,247.076569 364.880859,240.254913 
z"/>
<path fill="#000000" opacity="1.000000" stroke="none" 
	d="
M300.334747,234.779388 
	C300.758667,238.116287 301.092102,241.085724 301.068146,244.052277 
	C301.051666,246.090515 301.423462,248.631744 298.459595,249.230774 
	C295.338318,249.861603 293.781311,248.271667 293.690063,245.091843 
	C291.274109,245.862625 292.361481,249.322128 289.637695,249.241226 
	C288.185913,249.198074 286.200653,249.797562 285.686310,248.056458 
	C284.451569,243.876495 284.709351,239.539139 285.550201,235.307068 
	C285.935822,233.366272 287.820312,233.786713 289.281677,233.759018 
	C291.949677,233.708466 291.667725,236.478317 293.179657,238.452225 
	C294.385773,234.421158 296.290619,232.363892 300.334747,234.779388 
z"/>
<path fill="#000000" opacity="1.000000" stroke="none" 
	d="
M204.382812,256.566650 
	C204.462540,257.817047 203.119064,258.523804 204.189133,259.928741 
	C206.280365,258.354797 206.688049,254.964737 209.810730,254.519257 
	C212.039642,254.201263 214.566132,253.854446 215.569000,256.045074 
	C216.758041,258.642365 213.768356,258.910431 212.121964,259.989227 
	C213.272629,261.767303 218.033737,262.365265 215.112350,265.195496 
	C211.987244,268.223053 208.344147,266.523499 205.557144,263.227325 
	C203.012161,266.687469 199.876419,267.399872 196.302994,265.595123 
	C195.164810,265.020264 195.377151,256.765472 196.643768,255.780594 
	C199.258713,253.747330 201.975540,253.195557 204.382812,256.566650 
z"/>
<path fill="#000000" opacity="1.000000" stroke="none" 
	d="
M209.974350,248.027893 
	C211.026291,244.543777 212.181641,241.086594 213.097717,237.567108 
	C213.842163,234.706955 215.428757,233.594208 218.424515,233.589706 
	C221.419205,233.585205 223.041306,234.663589 223.747711,237.552612 
	C224.415009,240.281586 225.439484,242.922714 226.119919,245.649139 
	C226.741394,248.139343 225.455765,250.057663 223.069595,249.175720 
	C219.646866,247.910675 216.587006,249.006348 213.358322,249.266068 
	C212.449463,249.339188 211.492065,248.808884 210.279953,248.273727 
	C210.002975,247.992111 209.974350,248.027893 209.974350,248.027893 
z"/>
<path fill="#000000" opacity="1.000000" stroke="none" 
	d="
M307.189636,249.100296 
	C305.335358,249.271515 303.830719,249.583511 301.992401,248.360321 
	C302.012177,243.928482 303.648987,239.597031 305.426788,235.435257 
	C306.621094,232.639343 313.142944,232.856537 314.139526,235.725143 
	C315.579407,239.869751 317.559601,243.971237 317.443878,248.191162 
	C314.127563,251.710968 310.669495,246.231064 307.189636,249.100296 
z"/>
<path fill="#000000" opacity="1.000000" stroke="none" 
	d="
M401.198181,245.528503 
	C402.087646,243.659958 402.433136,242.197281 401.696503,240.450851 
	C400.648193,237.965286 401.415344,235.776474 403.822052,234.550446 
	C406.631226,233.119446 409.573029,233.095291 412.355865,234.768188 
	C413.553406,235.488098 413.633301,236.676193 413.130432,237.839310 
	C412.570251,239.134842 412.448456,240.280228 413.199127,241.600342 
	C415.224213,245.161697 413.849884,247.669006 410.404480,249.185684 
	C406.533447,250.889740 403.000549,249.554993 401.198181,245.528503 
z"/>
<path fill="#000000" opacity="1.000000" stroke="none" 
	d="
M355.108704,235.914536 
	C357.107758,240.224304 356.006989,242.994507 351.838226,244.382156 
	C350.232269,244.916733 348.706207,245.385162 348.256927,247.353897 
	C347.743073,249.605713 345.882568,249.319427 344.255432,249.186661 
	C342.040375,249.005875 341.802246,247.333679 341.775238,245.579330 
	C341.759949,244.586563 341.626892,243.576843 341.760468,242.604111 
	C342.149414,239.772034 340.113007,235.699280 343.126587,234.360321 
	C346.752197,232.749405 351.211487,232.644745 355.108704,235.914536 
z"/>
<path fill="#000000" opacity="1.000000" stroke="none" 
	d="
M277.978027,249.703217 
	C271.727142,248.302658 268.804382,244.522583 269.852997,239.707642 
	C270.835938,235.194260 275.143433,232.711609 280.259521,233.728043 
	C281.913788,234.056686 283.954437,234.518829 283.810699,236.472244 
	C283.672119,238.355759 282.707001,240.421585 279.987091,239.952316 
	C278.509979,239.697479 277.184357,239.865921 277.090454,241.630356 
	C277.031219,242.743317 278.028778,243.585220 279.117706,243.179337 
	C282.024994,242.095688 283.399048,243.837326 283.715851,246.052002 
	C284.155731,249.126968 281.332428,249.005646 279.333344,249.507706 
	C279.013580,249.587997 278.682770,249.624176 277.978027,249.703217 
z"/>
<path fill="#000000" opacity="1.000000" stroke="none" 
	d="
M210.016693,247.973694 
	C206.297806,249.754990 202.545441,250.808960 198.803070,248.021317 
	C196.143402,246.040161 195.294128,243.292892 195.730103,240.107880 
	C196.481949,234.614914 203.515411,231.413803 208.107758,234.447189 
	C208.957809,235.008667 209.819244,235.645844 209.565399,236.793137 
	C209.233551,238.292847 208.525253,239.618073 206.890244,240.077057 
	C205.570740,240.447479 203.792847,239.546417 202.872482,241.924423 
	C204.906921,243.928528 210.166718,242.364182 209.924774,247.668716 
	C209.974350,248.027893 210.002975,247.992111 210.016693,247.973694 
z"/>
<path fill="#000000" opacity="1.000000" stroke="none" 
	d="
M259.636597,244.684891 
	C258.051117,245.263809 257.519714,246.207794 257.241364,247.428619 
	C256.710083,249.758881 254.824677,249.264175 253.216888,249.216446 
	C251.250504,249.158081 250.770981,247.809479 250.741730,246.155533 
	C250.709366,244.325623 250.687225,242.495255 250.689392,240.665100 
	C250.697845,233.514099 251.115005,233.187881 258.434723,233.645676 
	C261.565155,233.841446 264.138306,234.870651 264.728882,238.176773 
	C265.362976,241.726883 263.470001,243.829163 259.636597,244.684891 
z"/>
<path fill="#000000" opacity="1.000000" stroke="none" 
	d="
M356.805603,244.782883 
	C356.835358,241.827499 356.874084,239.336761 356.921051,236.846176 
	C356.964813,234.526840 358.236176,233.710236 360.452393,233.708435 
	C362.618256,233.706665 363.427917,234.787323 363.438690,236.757797 
	C363.453156,239.411407 363.511414,242.066727 363.437958,244.718201 
	C363.380707,246.785370 363.919098,249.239334 360.493011,249.318237 
	C357.536133,249.386353 356.766541,247.754883 356.805603,244.782883 
z"/>
<path fill="#000000" opacity="1.000000" stroke="none" 
	d="
M256.962585,262.831024 
	C256.993805,260.553711 256.969574,258.725586 257.082764,256.906036 
	C257.179169,255.356400 258.101898,254.486847 259.669739,254.450836 
	C261.235199,254.414856 262.226044,255.152588 262.246155,256.795288 
	C262.275299,259.176270 262.228363,261.455200 265.324341,262.191315 
	C266.387146,262.444061 266.401093,263.771301 266.263885,264.776215 
	C266.093384,266.025391 265.059601,266.442444 264.064423,266.281097 
	C261.478882,265.861877 257.688934,268.127930 256.962585,262.831024 
z"/>
</svg>